<svg xmlns="http://www.w3.org/2000/svg" viewBox="0 0 512 512">
<defs><linearGradient id="sky" x1="0" y1="0" x2="0" y2="1"><stop offset="0" stop-color="#bfe3ff"/><stop offset="1" stop-color="#fff8e1"/></linearGradient></defs>
<rect width="512" height="512" fill="url(#sky)"/>
<ellipse cx="256" cy="470" rx="230" ry="34" fill="#9bbf5a"/>
<g stroke="#14110f" stroke-width="8" stroke-linejoin="round" stroke-linecap="round"><path d="M256 10 V28 M256 132 V150 M186 80 H204 M308 80 H326 M208 32 l14 14 M304 128 l-14 -14 M304 32 l-14 14 M208 128 l14 -14" stroke-width="7"/><circle cx="256" cy="80" r="40" fill="#f2b705"/></g>
<g transform="translate(410 360) scale(1.05)" stroke="#14110f" stroke-width="7.62" stroke-linejoin="round" stroke-linecap="round">
<path d="M-26 -30 L-56 82 Q0 92 56 82 L26 -30 Z" fill="#c1121f"/>
<path d="M-24 -24 L-50 2 L-28 22" fill="none" stroke="#14110f" stroke-width="21.62"/><path d="M-24 -24 L-50 2 L-28 22" fill="none" stroke="#24324f" stroke-width="14"/><path d="M24 -24 L50 2 L28 22" fill="none" stroke="#14110f" stroke-width="21.62"/><path d="M24 -24 L50 2 L28 22" fill="none" stroke="#24324f" stroke-width="14"/>
<path d="M-22 30 L-24 82 L-3 82 L-1 44 L1 44 L3 82 L24 82 L22 30 Z" fill="#24324f"/>
<path d="M-28 -32 Q0 -38 28 -32 L24 36 L-24 36 Z" fill="#24324f"/>
<rect x="-26" y="8" width="52" height="11" fill="#f2b705" stroke-width="4.57"/>
<circle cx="-27" cy="22" r="10" fill="#f2c49b" stroke-width="5.33"/><circle cx="27" cy="22" r="10" fill="#f2c49b" stroke-width="5.33"/>
<circle cy="-54" r="23" fill="#f2c49b"/>
<circle cx="-8" cy="-50" r="3.5" fill="#14110f" stroke="none"/><circle cx="8" cy="-50" r="3.5" fill="#14110f" stroke="none"/>
<path d="M-9 -41 Q0 -34 9 -41" fill="none" stroke-width="3.81"/>
<path d="M-24 -64 Q-24 -98 0 -98 Q24 -98 24 -64 Z" fill="#f2b705"/>
<path d="M-36 -64 Q0 -70 38 -64 Q0 -56 -36 -64 Z" fill="#f2b705"/></g>
<g transform="translate(250 250) scale(-1.6 1.6)" stroke="#14110f" stroke-width="5" stroke-linejoin="round" stroke-linecap="round">
<path d="M-40 0 L-86 -20 L-80 14 Z" fill="#1d4f9a"/>
<ellipse rx="52" ry="42" fill="#2a6fdb"/>
<path d="M-30 24 Q0 50 40 18 Q20 -2 -30 24 Z" fill="#fff" stroke="none"/>
<path d="M30 -64 L22 -92 L44 -74 L52 -96 L58 -64 Z" fill="#2a6fdb"/>
<circle cx="40" cy="-40" r="30" fill="#2a6fdb"/>
<path d="M64 -50 L98 -38 L64 -28 Z" fill="#f2b705"/>
<circle cx="50" cy="-46" r="8" fill="#fff" stroke-width="2.5"/><circle cx="52" cy="-46" r="4" fill="#14110f" stroke="none"/>
<path d="M-28 -14 Q6 -26 22 2 Q0 20 -28 -14 Z" fill="#1d4f9a"/></g>
<g transform="translate(82 214) scale(0.85) rotate(-14)" stroke="#14110f" stroke-width="8.53" stroke-linejoin="round" stroke-linecap="round">
<path d="M-54 8 Q-54 -36 0 -36 Q54 -36 54 8 Q54 24 0 24 Q-54 24 -54 8 Z" fill="#e0a33a"/>
<path d="M-50 9 Q0 18 50 9" fill="none" stroke-width="5.12"/>
<path d="M-32 -18 Q-16 -28 4 -28" fill="none" stroke="#f6d27a" stroke-width="8.53"/>
<g fill="#fff" stroke-width="2.56"><ellipse cx="-22" cy="-8" rx="6" ry="3.5" transform="rotate(-20 -22 -8)"/><ellipse cx="8" cy="-20" rx="6" ry="3.5" transform="rotate(15 8 -20)"/><ellipse cx="28" cy="-4" rx="6" ry="3.5" transform="rotate(30 28 -4)"/><ellipse cx="-2" cy="-2" rx="6" ry="3.5"/><ellipse cx="-36" cy="-2" rx="5" ry="3" transform="rotate(-40 -36 -2)"/></g></g>
<path d="M340 210 h40 M330 250 h50 M340 290 h40" fill="none" stroke="#14110f" stroke-width="7" stroke-linecap="round"/>
</svg>
