<svg xmlns="http://www.w3.org/2000/svg" viewBox="0 0 512 512">
<defs><linearGradient id="sky" x1="0" y1="0" x2="0" y2="1"><stop offset="0" stop-color="#bfe3ff"/><stop offset="1" stop-color="#fff8e1"/></linearGradient></defs>
<rect width="512" height="512" fill="url(#sky)"/>
<ellipse cx="256" cy="470" rx="230" ry="34" fill="#9bbf5a"/>
<g stroke="#14110f" stroke-width="8" stroke-linejoin="round" stroke-linecap="round">
<path d="M256 60 Q240 110 180 140 Q90 190 100 270 Q120 340 256 340 Q392 340 412 270 Q422 190 332 140 Q272 110 256 60 Z" fill="#c77dbb"/>
<path d="M256 70 Q220 180 230 336 M256 70 Q292 180 282 336 M256 70 Q160 200 180 330 M256 70 Q352 200 332 330" fill="none" stroke="#a0508f" stroke-width="6"/>
<path d="M256 62 Q240 30 250 10 M256 62 Q270 30 280 16" fill="none" stroke="#2e7d32" stroke-width="10"/>
<path d="M210 340 l-10 20 M256 340 v22 M302 340 l10 20" fill="none" stroke-width="5"/>
</g>
<g transform="translate(90 430) scale(1.05)" stroke="#14110f" stroke-width="7.62" stroke-linejoin="round" stroke-linecap="round">
<path d="M-54 8 Q-54 -36 0 -36 Q54 -36 54 8 Q54 24 0 24 Q-54 24 -54 8 Z" fill="#e0a33a"/>
<path d="M-50 9 Q0 18 50 9" fill="none" stroke-width="4.57"/>
<path d="M-32 -18 Q-16 -28 4 -28" fill="none" stroke="#f6d27a" stroke-width="7.62"/>
<g fill="#fff" stroke-width="2.29"><ellipse cx="-22" cy="-8" rx="6" ry="3.5" transform="rotate(-20 -22 -8)"/><ellipse cx="8" cy="-20" rx="6" ry="3.5" transform="rotate(15 8 -20)"/><ellipse cx="28" cy="-4" rx="6" ry="3.5" transform="rotate(30 28 -4)"/><ellipse cx="-2" cy="-2" rx="6" ry="3.5"/><ellipse cx="-36" cy="-2" rx="5" ry="3" transform="rotate(-40 -36 -2)"/></g></g><g transform="translate(256 430) scale(1.05)" stroke="#14110f" stroke-width="7.62" stroke-linejoin="round" stroke-linecap="round">
<path d="M-44 -52 L-6 -52 L-2 -12 Q34 -8 54 6 Q62 14 60 24 L-48 24 Q-50 -10 -44 -52 Z" fill="#c1121f"/>
<path d="M28 0 Q52 6 60 24 L26 24 Q20 12 28 0 Z" fill="#fff"/>
<path d="M-52 22 H62 Q66 40 52 40 H-46 Q-56 40 -52 22 Z" fill="#fff"/>
<path d="M-16 -42 L2 -40 M-14 -30 L6 -27 M-10 -18 L12 -15" fill="none" stroke="#14110f" stroke-width="12.96"/><path d="M-16 -42 L2 -40 M-14 -30 L6 -27 M-10 -18 L12 -15" fill="none" stroke="#fff" stroke-width="6.1"/></g><g transform="translate(420 390) scale(0.85)" stroke="#14110f" stroke-width="8.53" stroke-linejoin="round" stroke-linecap="round">
<path d="M-26 -30 L-56 82 Q0 92 56 82 L26 -30 Z" fill="#c1121f"/>
<path d="M-24 -24 L-50 2 L-28 22" fill="none" stroke="#14110f" stroke-width="22.53"/><path d="M-24 -24 L-50 2 L-28 22" fill="none" stroke="#24324f" stroke-width="14"/><path d="M24 -24 L50 2 L28 22" fill="none" stroke="#14110f" stroke-width="22.53"/><path d="M24 -24 L50 2 L28 22" fill="none" stroke="#24324f" stroke-width="14"/>
<path d="M-22 30 L-24 82 L-3 82 L-1 44 L1 44 L3 82 L24 82 L22 30 Z" fill="#24324f"/>
<path d="M-28 -32 Q0 -38 28 -32 L24 36 L-24 36 Z" fill="#24324f"/>
<rect x="-26" y="8" width="52" height="11" fill="#f2b705" stroke-width="5.12"/>
<circle cx="-27" cy="22" r="10" fill="#f2c49b" stroke-width="5.97"/><circle cx="27" cy="22" r="10" fill="#f2c49b" stroke-width="5.97"/>
<circle cy="-54" r="23" fill="#f2c49b"/>
<circle cx="-8" cy="-50" r="3.5" fill="#14110f" stroke="none"/><circle cx="8" cy="-50" r="3.5" fill="#14110f" stroke="none"/>
<path d="M-9 -41 Q0 -34 9 -41" fill="none" stroke-width="4.26"/>
<path d="M-24 -64 Q-24 -98 0 -98 Q24 -98 24 -64 Z" fill="#f2b705"/>
<path d="M-36 -64 Q0 -70 38 -64 Q0 -56 -36 -64 Z" fill="#f2b705"/></g>
</svg>
