<svg xmlns="http://www.w3.org/2000/svg" viewBox="0 0 512 512">
<defs><linearGradient id="sky" x1="0" y1="0" x2="0" y2="1"><stop offset="0" stop-color="#bfe3ff"/><stop offset="1" stop-color="#fff8e1"/></linearGradient></defs>
<rect width="512" height="512" fill="url(#sky)"/>
<ellipse cx="256" cy="470" rx="230" ry="34" fill="#9bbf5a"/>
<g transform="translate(90 240)" stroke="#14110f" stroke-width="8" stroke-linejoin="round" stroke-linecap="round">
<path d="M-54 8 Q-54 -36 0 -36 Q54 -36 54 8 Q54 24 0 24 Q-54 24 -54 8 Z" fill="#e0a33a"/>
<path d="M-50 9 Q0 18 50 9" fill="none" stroke-width="4.8"/>
<path d="M-32 -18 Q-16 -28 4 -28" fill="none" stroke="#f6d27a" stroke-width="8"/>
<g fill="#fff" stroke-width="2.4"><ellipse cx="-22" cy="-8" rx="6" ry="3.5" transform="rotate(-20 -22 -8)"/><ellipse cx="8" cy="-20" rx="6" ry="3.5" transform="rotate(15 8 -20)"/><ellipse cx="28" cy="-4" rx="6" ry="3.5" transform="rotate(30 28 -4)"/><ellipse cx="-2" cy="-2" rx="6" ry="3.5"/><ellipse cx="-36" cy="-2" rx="5" ry="3" transform="rotate(-40 -36 -2)"/></g></g><g transform="translate(240 230)" stroke="#14110f" stroke-width="8" stroke-linejoin="round" stroke-linecap="round">
<path d="M-44 -52 L-6 -52 L-2 -12 Q34 -8 54 6 Q62 14 60 24 L-48 24 Q-50 -10 -44 -52 Z" fill="#c1121f"/>
<path d="M28 0 Q52 6 60 24 L26 24 Q20 12 28 0 Z" fill="#fff"/>
<path d="M-52 22 H62 Q66 40 52 40 H-46 Q-56 40 -52 22 Z" fill="#fff"/>
<path d="M-16 -42 L2 -40 M-14 -30 L6 -27 M-10 -18 L12 -15" fill="none" stroke="#14110f" stroke-width="13.6"/><path d="M-16 -42 L2 -40 M-14 -30 L6 -27 M-10 -18 L12 -15" fill="none" stroke="#fff" stroke-width="6.4"/></g><g transform="translate(410 230) scale(0.95)" stroke="#14110f" stroke-width="8.16" stroke-linejoin="round" stroke-linecap="round"><rect x="-46" y="-86" width="92" height="172" fill="#5c3a1c"/><rect x="-36" y="-76" width="72" height="162" fill="#a0672f"/>
<rect x="-24" y="-64" width="48" height="56" rx="4" fill="#8a5a2b" stroke-width="4.89"/><rect x="-24" y="8" width="48" height="64" rx="4" fill="#8a5a2b" stroke-width="4.89"/>
<circle cx="24" cy="0" r="8" fill="#f2b705"/></g>
<g fill="#fff" stroke="#f2b705" stroke-width="6"><circle cx="150" cy="240" r="14"/><circle cx="320" cy="240" r="14"/></g>
<g transform="translate(256 440) scale(1.25 1.25)" stroke="#14110f" stroke-width="6.4" stroke-linejoin="round" stroke-linecap="round">
<path d="M-8 0 L-10 60 M8 0 L10 60" fill="none" stroke="#14110f" stroke-width="20.4"/><path d="M-8 0 L-10 60 M8 0 L10 60" fill="none" stroke="#3c4a5c" stroke-width="14"/><path d="M-14 -54 L-30 -90 L-10 -120" fill="none" stroke="#14110f" stroke-width="17.4"/><path d="M-14 -54 L-30 -90 L-10 -120" fill="none" stroke="#f2c49b" stroke-width="11"/>
<path d="M-18 -64 Q0 -70 18 -64 L14 4 L-14 4 Z" fill="#4a5a6a"/>
<path d="M14 -54 L40 -80 L70 -120" fill="none" stroke="#14110f" stroke-width="17.4"/><path d="M14 -54 L40 -80 L70 -120" fill="none" stroke="#f2c49b" stroke-width="11"/>
<circle cy="-86" r="18" fill="#f2c49b"/><path d="M-18 -88 Q-16 -108 2 -106 Q20 -104 18 -88 Q6 -98 -18 -88 Z" fill="#5a3a1c"/>
<circle cx="7" cy="-86" r="3" fill="#14110f" stroke="none"/><path d="M4 -76 Q10 -74 14 -79" fill="none" stroke-width="3.2"/></g>
<g stroke="#14110f" stroke-width="8" stroke-linejoin="round" stroke-linecap="round">
<path d="M226 310 H286 V362 Q256 374 226 362 Z" fill="#3c3c44"/><rect x="236" y="326" width="40" height="14" fill="#6fd164" stroke-width="5"/>
<path d="M330 300 L316 274" stroke-width="16"/><path d="M330 300 L316 274" stroke="#9aa3ad" stroke-width="6"/>
</g>
<path d="M316 262 l-10 -30 M316 262 l20 -24 M316 262 l-30 -6" fill="none" stroke="#f2b705" stroke-width="6" stroke-linecap="round"/>
</svg>
