<svg xmlns="http://www.w3.org/2000/svg" viewBox="0 0 512 512">
<defs><linearGradient id="sky" x1="0" y1="0" x2="0" y2="1"><stop offset="0" stop-color="#bfe3ff"/><stop offset="1" stop-color="#fff8e1"/></linearGradient></defs>
<rect width="512" height="512" fill="url(#sky)"/>
<ellipse cx="256" cy="470" rx="230" ry="34" fill="#9bbf5a"/>
<g transform="translate(380 120) scale(1.25)" stroke="#14110f" stroke-width="6.4" stroke-linejoin="round" stroke-linecap="round">
<path d="M-34 -66 a34 10 0 1 0 68 0 a34 10 0 1 0 -68 0" fill="none" stroke="#14110f" stroke-width="16.4"/><path d="M-34 -66 a34 10 0 1 0 68 0 a34 10 0 1 0 -68 0" fill="none" stroke="#f2b705" stroke-width="10"/>
<path d="M-56 30 Q-82 30 -78 6 Q-74 -16 -50 -12 Q-46 -42 -16 -36 Q2 -56 26 -40 Q52 -48 56 -16 Q82 -12 78 10 Q74 30 52 30 Z" fill="#fff"/>
<path d="M-40 4 Q-30 -6 -18 0" fill="none" stroke="#dbe9f5" stroke-width="6.4"/></g>
<g stroke="#14110f" stroke-width="8" stroke-linejoin="round" stroke-linecap="round">
<path d="M200 250 L330 140" stroke="#14110f" stroke-width="14" stroke-linecap="round"/><path d="M200 250 L330 140" stroke="#c98a4b" stroke-width="6" stroke-linecap="round"/><path d="M170 230 L260 110" stroke="#14110f" stroke-width="14" stroke-linecap="round"/><path d="M170 230 L260 110" stroke="#c98a4b" stroke-width="6" stroke-linecap="round"/><path d="M230 270 L360 190" stroke="#14110f" stroke-width="14" stroke-linecap="round"/><path d="M230 270 L360 190" stroke="#c98a4b" stroke-width="6" stroke-linecap="round"/>
<path d="M330 140 l-6 -26 l26 10 Z M260 110 l-2 -26 l24 12 Z M360 190 l-4 -26 l26 12 Z" fill="#c1121f"/>
<g transform="rotate(35 150 340)">
<path d="M110 220 h80 l-8 230 h-64 Z" fill="#8a5a2b"/>
<path d="M112 260 h76 M114 400 h70" stroke-width="7"/>
<path d="M126 220 l-8 -40 l16 20 l6 -26 l10 30 l12 -24 l2 40" fill="#fff" stroke-width="5"/>
</g>
</g>
<g transform="translate(110 440) scale(1.3)" stroke="#14110f" stroke-width="6.15" stroke-linejoin="round" stroke-linecap="round">
<path d="M-54 8 Q-54 -36 0 -36 Q54 -36 54 8 Q54 24 0 24 Q-54 24 -54 8 Z" fill="#e0a33a"/>
<path d="M-50 9 Q0 18 50 9" fill="none" stroke-width="3.69"/>
<path d="M-32 -18 Q-16 -28 4 -28" fill="none" stroke="#f6d27a" stroke-width="6.15"/>
<g fill="#fff" stroke-width="1.85"><ellipse cx="-22" cy="-8" rx="6" ry="3.5" transform="rotate(-20 -22 -8)"/><ellipse cx="8" cy="-20" rx="6" ry="3.5" transform="rotate(15 8 -20)"/><ellipse cx="28" cy="-4" rx="6" ry="3.5" transform="rotate(30 28 -4)"/><ellipse cx="-2" cy="-2" rx="6" ry="3.5"/><ellipse cx="-36" cy="-2" rx="5" ry="3" transform="rotate(-40 -36 -2)"/></g></g>
<path d="M180 180 l-10 -20 M300 240 l14 -16" fill="none" stroke="#14110f" stroke-width="6" stroke-linecap="round"/>
</svg>
