<svg xmlns="http://www.w3.org/2000/svg" viewBox="0 0 512 512">
<defs><linearGradient id="sky" x1="0" y1="0" x2="0" y2="1"><stop offset="0" stop-color="#bfe3ff"/><stop offset="1" stop-color="#fff8e1"/></linearGradient></defs>
<rect width="512" height="512" fill="url(#sky)"/>
<ellipse cx="256" cy="470" rx="230" ry="34" fill="#9bbf5a"/>
<g stroke="#14110f" stroke-width="8" stroke-linejoin="round" stroke-linecap="round">
<path d="M30 420 L60 470 M220 420 L190 470 M60 400 L60 470 M200 400 L200 470" stroke-width="10"/>
<rect x="20" y="380" width="240" height="40" rx="10" fill="#5f7d4a"/>
<rect x="34" y="364" width="70" height="24" rx="10" fill="#fff"/>
<path d="M84 370 Q60 200 140 170 Q220 200 196 370 Z" fill="#8a6a46"/>
<path d="M110 360 Q100 270 140 260 Q180 270 170 360 Z" fill="#e8d6b4"/>
<path d="M92 196 L96 156 L120 180 M188 196 L184 156 L160 180" fill="#8a6a46"/>
<circle cx="116" cy="214" r="24" fill="#fff"/><circle cx="164" cy="214" r="24" fill="#fff"/>
<circle cx="118" cy="216" r="11" fill="#14110f" stroke="none"/><circle cx="162" cy="216" r="11" fill="#14110f" stroke="none"/>
<path d="M132 236 L148 236 L140 254 Z" fill="#f2b705"/>
<path d="M90 260 Q70 300 92 330 M190 260 Q210 300 188 330" fill="none" stroke-width="7"/>
<path d="M150 366 l6 14 M162 366 l6 14" stroke="#e08a1e" stroke-width="7"/>
</g>
<g transform="translate(112 352) scale(0.85)" stroke="#14110f" stroke-width="8.53" stroke-linejoin="round" stroke-linecap="round">
<path d="M-44 -52 L-6 -52 L-2 -12 Q34 -8 54 6 Q62 14 60 24 L-48 24 Q-50 -10 -44 -52 Z" fill="#c1121f"/>
<path d="M28 0 Q52 6 60 24 L26 24 Q20 12 28 0 Z" fill="#fff"/>
<path d="M-52 22 H62 Q66 40 52 40 H-46 Q-56 40 -52 22 Z" fill="#fff"/>
<path d="M-16 -42 L2 -40 M-14 -30 L6 -27 M-10 -18 L12 -15" fill="none" stroke="#14110f" stroke-width="14.5"/><path d="M-16 -42 L2 -40 M-14 -30 L6 -27 M-10 -18 L12 -15" fill="none" stroke="#fff" stroke-width="6.82"/></g>
<g transform="translate(390 400) scale(1.35)" stroke="#14110f" stroke-width="5.93" stroke-linejoin="round" stroke-linecap="round">
<path d="M-52 40 Q-60 -54 0 -58 Q60 -54 52 40 Z" fill="#f2b705"/>
<path d="M-48 16 Q0 26 48 16 M-49 -10 Q0 0 49 -10 M-38 -36 Q0 -28 38 -36" fill="none" stroke-width="4.44"/>
<path d="M-14 40 Q-14 22 0 22 Q14 22 14 40 Z" fill="#14110f"/>
<path d="M-60 40 H60" fill="none"/><g transform="translate(60 -50) scale(1)" stroke="#14110f" stroke-width="4.8"><ellipse cx="-4" cy="-10" rx="6" ry="9" fill="#fff"/><ellipse cx="5" cy="-10" rx="6" ry="9" fill="#fff"/><ellipse rx="12" ry="8" fill="#f2b705"/><path d="M-2 -7v14M5 -6v12"/></g><g transform="translate(-64 -30) scale(1)" stroke="#14110f" stroke-width="4.8"><ellipse cx="-4" cy="-10" rx="6" ry="9" fill="#fff"/><ellipse cx="5" cy="-10" rx="6" ry="9" fill="#fff"/><ellipse rx="12" ry="8" fill="#f2b705"/><path d="M-2 -7v14M5 -6v12"/></g></g>
<path d="M226 240 l20 -8 M226 270 h22" fill="none" stroke="#14110f" stroke-width="6" stroke-linecap="round"/>
</svg>
