<svg xmlns="http://www.w3.org/2000/svg" viewBox="0 0 512 512">
<defs><linearGradient id="sky" x1="0" y1="0" x2="0" y2="1"><stop offset="0" stop-color="#bfe3ff"/><stop offset="1" stop-color="#fff8e1"/></linearGradient></defs>
<rect width="512" height="512" fill="url(#sky)"/>
<ellipse cx="256" cy="470" rx="230" ry="34" fill="#9bbf5a"/>
<g transform="translate(140 250) scale(2.2)" stroke="#14110f" stroke-width="3.64" stroke-linejoin="round" stroke-linecap="round">
<path d="M-14 72 L-10 0 L10 0 L14 72 Z" fill="#8a5a2b"/>
<circle cy="-34" r="54" fill="#3f9b3a"/>
<circle cx="-42" cy="-4" r="34" fill="#4fb046"/><circle cx="42" cy="-6" r="36" fill="#4fb046"/>
<circle cx="-14" cy="-56" r="11" fill="#6fd164" stroke="none"/><circle cx="20" cy="-38" r="8" fill="#6fd164" stroke="none"/></g>
<g stroke="#14110f" stroke-width="8" stroke-linejoin="round" stroke-linecap="round">
<path d="M90 230 h110 v70 h-110 Z" fill="#a0672f"/><path d="M80 236 L145 180 L210 236 Z" fill="#c1121f"/>
<rect x="128" y="250" width="34" height="50" fill="#2a1a0c"/>
<path d="M120 300 L104 470 M160 300 L176 470 M110 340 h58 M108 380 h62 M106 420 h66" fill="none" stroke-width="7"/>
</g>
<g transform="translate(250 380) scale(1.5 1.5)" stroke="#14110f" stroke-width="5.33" stroke-linejoin="round" stroke-linecap="round">
<path d="M-8 0 L-10 60 M8 0 L10 60" fill="none" stroke="#14110f" stroke-width="19.33"/><path d="M-8 0 L-10 60 M8 0 L10 60" fill="none" stroke="#14110f" stroke-width="14"/><path d="M-14 -54 L-22 -20" fill="none" stroke="#14110f" stroke-width="16.33"/><path d="M-14 -54 L-22 -20" fill="none" stroke="#f2c49b" stroke-width="11"/>
<path d="M-18 -64 Q0 -70 18 -64 L14 4 L-14 4 Z" fill="#14110f"/>
<path d="M4 -54 L40 -50 L70 -40" fill="none" stroke="#14110f" stroke-width="16.33"/><path d="M4 -54 L40 -50 L70 -40" fill="none" stroke="#f2c49b" stroke-width="11"/>
<circle cy="-86" r="18" fill="#f2c49b"/><path d="M-18 -88 Q-16 -108 2 -106 Q20 -104 18 -88 Q6 -98 -18 -88 Z" fill="#14110f"/>
<circle cx="7" cy="-86" r="3" fill="#14110f" stroke="none"/><path d="M4 -76 Q10 -74 14 -79" fill="none" stroke-width="2.67"/></g>
<path transform="translate(258 252) scale(1.5)" d="M-16 -4 h14 v6 q-7 6 -14 0 Z M2 -4 h14 v6 q-7 6 -14 0 Z M-2 -2 h4" fill="#14110f" stroke="#14110f" stroke-width="3" stroke-linejoin="round"/>
<g stroke="#14110f" stroke-width="8" stroke-linejoin="round" stroke-linecap="round"><path d="M240 290 h20 l-10 30 Z" fill="#c1121f" stroke-width="4"/></g>
<g transform="translate(410 360) scale(1.05)" stroke="#14110f" stroke-width="7.62" stroke-linejoin="round" stroke-linecap="round">
<path d="M-26 -30 L-56 82 Q0 92 56 82 L26 -30 Z" fill="#c1121f"/>
<path d="M-24 -24 L-50 2 L-28 22" fill="none" stroke="#14110f" stroke-width="21.62"/><path d="M-24 -24 L-50 2 L-28 22" fill="none" stroke="#24324f" stroke-width="14"/><path d="M24 -24 L50 2 L28 22" fill="none" stroke="#14110f" stroke-width="21.62"/><path d="M24 -24 L50 2 L28 22" fill="none" stroke="#24324f" stroke-width="14"/>
<path d="M-22 30 L-24 82 L-3 82 L-1 44 L1 44 L3 82 L24 82 L22 30 Z" fill="#24324f"/>
<path d="M-28 -32 Q0 -38 28 -32 L24 36 L-24 36 Z" fill="#24324f"/>
<rect x="-26" y="8" width="52" height="11" fill="#f2b705" stroke-width="4.57"/>
<circle cx="-27" cy="22" r="10" fill="#f2c49b" stroke-width="5.33"/><circle cx="27" cy="22" r="10" fill="#f2c49b" stroke-width="5.33"/>
<circle cy="-54" r="23" fill="#f2c49b"/>
<circle cx="-8" cy="-50" r="3.5" fill="#14110f" stroke="none"/><circle cx="8" cy="-50" r="3.5" fill="#14110f" stroke="none"/>
<path d="M-9 -41 Q0 -34 9 -41" fill="none" stroke-width="3.81"/>
<path d="M-24 -64 Q-24 -98 0 -98 Q24 -98 24 -64 Z" fill="#f2b705"/>
<path d="M-36 -64 Q0 -70 38 -64 Q0 -56 -36 -64 Z" fill="#f2b705"/></g>
<path d="M80 120 l-16 -10 M210 110 l16 -10" fill="none" stroke="#14110f" stroke-width="6" stroke-linecap="round"/>
</svg>
