<svg xmlns="http://www.w3.org/2000/svg" viewBox="0 0 512 512">
<defs><linearGradient id="sky" x1="0" y1="0" x2="0" y2="1"><stop offset="0" stop-color="#bfe3ff"/><stop offset="1" stop-color="#fff8e1"/></linearGradient></defs>
<rect width="512" height="512" fill="url(#sky)"/>
<ellipse cx="256" cy="470" rx="230" ry="34" fill="#9bbf5a"/>
<g transform="translate(180 290) scale(2.4)" stroke="#14110f" stroke-width="3.33" stroke-linejoin="round" stroke-linecap="round">
<path d="M-14 72 L-10 0 L10 0 L14 72 Z" fill="#8a5a2b"/>
<circle cy="-34" r="54" fill="#3f9b3a"/>
<circle cx="-42" cy="-4" r="34" fill="#4fb046"/><circle cx="42" cy="-6" r="36" fill="#4fb046"/>
<circle cx="-14" cy="-56" r="11" fill="#6fd164" stroke="none"/><circle cx="20" cy="-38" r="8" fill="#6fd164" stroke="none"/></g>
<g stroke="#14110f" stroke-width="8" stroke-linejoin="round" stroke-linecap="round">
<path d="M500 470 L360 40" stroke-width="18"/><path d="M500 470 L360 40" stroke="#5c3a1c" stroke-width="8"/>
<circle cx="452" cy="330" r="22" fill="#9aa3ad"/><path d="M452 330 l24 -10" stroke-width="7"/>
<path d="M360 40 Q350 120 340 190" fill="none" stroke-width="4"/>
<path d="M340 190 V250 Q340 290 306 290 Q276 290 276 260 L292 270" fill="none" stroke-width="22"/>
<path d="M340 190 V250 Q340 290 306 290 Q276 290 276 260 L292 270" fill="none" stroke="#c9ced6" stroke-width="10"/>
<circle cx="340" cy="186" r="10" fill="#c9ced6"/>
</g>
<g transform="translate(320 330) scale(1.1) rotate(-20)" stroke="#14110f" stroke-width="7.27" stroke-linejoin="round" stroke-linecap="round">
<path d="M-44 -52 L-6 -52 L-2 -12 Q34 -8 54 6 Q62 14 60 24 L-48 24 Q-50 -10 -44 -52 Z" fill="#c1121f"/>
<path d="M28 0 Q52 6 60 24 L26 24 Q20 12 28 0 Z" fill="#fff"/>
<path d="M-52 22 H62 Q66 40 52 40 H-46 Q-56 40 -52 22 Z" fill="#fff"/>
<path d="M-16 -42 L2 -40 M-14 -30 L6 -27 M-10 -18 L12 -15" fill="none" stroke="#14110f" stroke-width="12.37"/><path d="M-16 -42 L2 -40 M-14 -30 L6 -27 M-10 -18 L12 -15" fill="none" stroke="#fff" stroke-width="5.82"/></g>
<path d="M380 380 l20 10 M370 420 l20 0 M230 160 l-10 -16" fill="none" stroke="#14110f" stroke-width="6" stroke-linecap="round"/>
</svg>
