<svg xmlns="http://www.w3.org/2000/svg" viewBox="0 0 512 512">
<defs><linearGradient id="sky" x1="0" y1="0" x2="0" y2="1"><stop offset="0" stop-color="#bfe3ff"/><stop offset="1" stop-color="#fff8e1"/></linearGradient></defs>
<rect width="512" height="512" fill="url(#sky)"/>
<g stroke="#14110f" stroke-width="8" stroke-linejoin="round" stroke-linecap="round"><path d="M-10 480 Q30 430 90 450 Q130 410 190 450 Q240 420 300 450 Q350 410 410 450 Q470 420 522 460 V522 H-10 Z" fill="#fff"/></g>
<g transform="translate(110 140) scale(1.2)" stroke="#14110f" stroke-width="6.67" stroke-linejoin="round" stroke-linecap="round">
<path d="M-34 -66 a34 10 0 1 0 68 0 a34 10 0 1 0 -68 0" fill="none" stroke="#14110f" stroke-width="16.67"/><path d="M-34 -66 a34 10 0 1 0 68 0 a34 10 0 1 0 -68 0" fill="none" stroke="#f2b705" stroke-width="10"/>
<path d="M-56 30 Q-82 30 -78 6 Q-74 -16 -50 -12 Q-46 -42 -16 -36 Q2 -56 26 -40 Q52 -48 56 -16 Q82 -12 78 10 Q74 30 52 30 Z" fill="#fff"/>
<path d="M-40 4 Q-30 -6 -18 0" fill="none" stroke="#dbe9f5" stroke-width="6.67"/></g>
<g transform="translate(370 350) scale(1.15)" stroke="#14110f" stroke-width="6.96" stroke-linejoin="round" stroke-linecap="round">
<path d="M-26 -30 L-56 82 Q0 92 56 82 L26 -30 Z" fill="#c1121f"/>
<path d="M-24 -24 L-50 2 L-28 22" fill="none" stroke="#14110f" stroke-width="20.96"/><path d="M-24 -24 L-50 2 L-28 22" fill="none" stroke="#24324f" stroke-width="14"/><path d="M24 -24 L50 2 L28 22" fill="none" stroke="#14110f" stroke-width="20.96"/><path d="M24 -24 L50 2 L28 22" fill="none" stroke="#24324f" stroke-width="14"/>
<path d="M-22 30 L-24 82 L-3 82 L-1 44 L1 44 L3 82 L24 82 L22 30 Z" fill="#24324f"/>
<path d="M-28 -32 Q0 -38 28 -32 L24 36 L-24 36 Z" fill="#24324f"/>
<rect x="-26" y="8" width="52" height="11" fill="#f2b705" stroke-width="4.17"/>
<circle cx="-27" cy="22" r="10" fill="#f2c49b" stroke-width="4.87"/><circle cx="27" cy="22" r="10" fill="#f2c49b" stroke-width="4.87"/>
<circle cy="-54" r="23" fill="#f2c49b"/>
<circle cx="-8" cy="-50" r="3.5" fill="#14110f" stroke="none"/><circle cx="8" cy="-50" r="3.5" fill="#14110f" stroke="none"/>
<path d="M-9 -41 Q0 -34 9 -41" fill="none" stroke-width="3.48"/>
<path d="M-24 -64 Q-24 -98 0 -98 Q24 -98 24 -64 Z" fill="#f2b705"/>
<path d="M-36 -64 Q0 -70 38 -64 Q0 -56 -36 -64 Z" fill="#f2b705"/></g>
<g stroke="#14110f" stroke-width="8" stroke-linejoin="round" stroke-linecap="round">
<rect x="236" y="220" width="22" height="130" rx="4" fill="#c9a66b"/><rect x="258" y="230" width="22" height="116" rx="4" fill="#c9a66b"/><rect x="280" y="240" width="22" height="102" rx="4" fill="#c9a66b"/><rect x="302" y="250" width="22" height="88" rx="4" fill="#c9a66b"/><rect x="324" y="260" width="22" height="74" rx="4" fill="#c9a66b"/><rect x="346" y="270" width="22" height="60" rx="4" fill="#c9a66b"/>
<path d="M232 300 Q300 320 370 330" fill="none" stroke="#c1121f" stroke-width="8"/>
</g>
<g stroke="#14110f" stroke-width="6" stroke-linejoin="round" stroke-linecap="round"><path d="M210 150 V116 L232 110 V142" fill="none"/><ellipse cx="203" cy="150" rx="9" ry="7" fill="#14110f"/><ellipse cx="225" cy="144" rx="9" ry="7" fill="#14110f"/></g><g stroke="#14110f" stroke-width="6" stroke-linejoin="round" stroke-linecap="round"><path d="M260 100 V66 L282 60 V92" fill="none"/><ellipse cx="253" cy="100" rx="9" ry="7" fill="#14110f"/><ellipse cx="275" cy="94" rx="9" ry="7" fill="#14110f"/></g>
</svg>
